<svg width="202" height="60" viewBox="0 0 202 60" fill="none" xmlns="http://www.w3.org/2000/svg">
<path fill-rule="evenodd" clip-rule="evenodd" d="M98.8192 33.8846C101.268 26.4352 108.929 21 118 21C121.785 21 125.324 21.9462 128.342 23.59C124.802 20.7358 120.126 19 115 19C103.954 19 95 27.0589 95 37C95 37.3648 95.0121 37.7271 95.0358 38.0865C96.0113 36.45 97.3 35.0217 98.8192 33.8846Z" fill="white"/>
<path fill-rule="evenodd" clip-rule="evenodd" d="M114.888 40.5C114.962 40.0107 115 39.5098 115 39C115 33.4772 110.523 29 105 29C99.4772 29 95 33.4772 95 39C95 39.5098 95.0381 40.0107 95.1118 40.5C95.8355 35.6887 99.987 32 105 32C110.013 32 114.165 35.6887 114.888 40.5Z" fill="white"/>
<path fill-rule="evenodd" clip-rule="evenodd" d="M176.894 40C176.964 39.532 177 39.0529 177 38.5652C177 33.2825 172.747 29 167.5 29C162.253 29 158 33.2825 158 38.5652C158 39.0529 158.036 39.532 158.106 40C158.794 35.3979 162.738 31.8696 167.5 31.8696C172.262 31.8696 176.206 35.3979 176.894 40Z" fill="white"/>
<line x1="113" y1="35" x2="159" y2="35" stroke="white" stroke-width="2"/>
<path fill-rule="evenodd" clip-rule="evenodd" d="M178 33C178 35.5655 177.612 38.0504 176.885 40.4109C176.961 39.6163 177 38.8122 177 38C177 22.536 162.897 10 145.5 10C135.638 10 126.835 14.0281 121.06 20.3342C120.261 20.1565 119.435 20.0468 118.587 20.012C123.853 11.0879 134.377 5 146.5 5C163.897 5 178 17.536 178 33Z" fill="white"/>
<rect x="158" y="34" width="2" height="1" fill="white"/>
<path d="M11.761 24.586C12.749 24.586 13.6167 24.4593 14.364 24.206C15.124 23.9527 15.751 23.598 16.245 23.142C16.7517 22.6733 17.1317 22.1097 17.385 21.451C17.6383 20.7923 17.765 20.0577 17.765 19.247C17.765 18.449 17.6383 17.7333 17.385 17.1C17.1443 16.4667 16.777 15.9283 16.283 15.485C15.789 15.0417 15.162 14.706 14.402 14.478C13.6547 14.2373 12.7743 14.117 11.761 14.117H7.695V24.586H11.761ZM11.761 10.64C13.547 10.64 15.0923 10.849 16.397 11.267C17.7143 11.685 18.7973 12.274 19.646 13.034C20.5073 13.7813 21.147 14.687 21.565 15.751C21.983 16.8023 22.192 17.9677 22.192 19.247C22.192 20.5517 21.9703 21.7487 21.527 22.838C21.0837 23.9147 20.425 24.8457 19.551 25.631C18.677 26.4037 17.5877 27.0117 16.283 27.455C14.991 27.8857 13.4837 28.101 11.761 28.101H7.695V38H3.249V10.64H11.761ZM35.4436 29.526C33.9869 29.5767 32.7583 29.697 31.7576 29.887C30.7569 30.0643 29.9463 30.2987 29.3256 30.59C28.7049 30.8687 28.2553 31.2043 27.9766 31.597C27.7106 31.9897 27.5776 32.4203 27.5776 32.889C27.5776 33.345 27.6473 33.7377 27.7866 34.067C27.9386 34.3837 28.1413 34.6497 28.3946 34.865C28.6606 35.0677 28.9646 35.2197 29.3066 35.321C29.6613 35.4097 30.0476 35.454 30.4656 35.454C31.5296 35.454 32.4416 35.2577 33.2016 34.865C33.9743 34.4597 34.7216 33.877 35.4436 33.117V29.526ZM24.6136 21.318C26.8049 19.2787 29.4143 18.259 32.4416 18.259C33.5563 18.259 34.5443 18.4427 35.4056 18.81C36.2796 19.1647 37.0079 19.6713 37.5906 20.33C38.1859 20.9887 38.6356 21.774 38.9396 22.686C39.2563 23.5853 39.4146 24.586 39.4146 25.688V38H37.5906C37.1979 38 36.9003 37.943 36.6976 37.829C36.4949 37.7023 36.3239 37.4553 36.1846 37.088L35.7856 35.511C35.2916 35.9543 34.8039 36.3533 34.3226 36.708C33.8413 37.05 33.3409 37.3413 32.8216 37.582C32.3149 37.8227 31.7639 38 31.1686 38.114C30.5859 38.2407 29.9399 38.304 29.2306 38.304C28.4453 38.304 27.7106 38.1963 27.0266 37.981C26.3553 37.7657 25.7726 37.4427 25.2786 37.012C24.7846 36.5687 24.3919 36.024 24.1006 35.378C23.8219 34.732 23.6826 33.972 23.6826 33.098C23.6826 32.3507 23.8789 31.6223 24.2716 30.913C24.6769 30.2037 25.3356 29.5703 26.2476 29.013C27.1723 28.443 28.3819 27.9743 29.8766 27.607C31.3839 27.2397 33.2396 27.0307 35.4436 26.98V25.688C35.4436 24.2947 35.1459 23.256 34.5506 22.572C33.9553 21.888 33.0813 21.546 31.9286 21.546C31.1433 21.546 30.4846 21.6473 29.9526 21.85C29.4206 22.04 28.9583 22.249 28.5656 22.477C28.1729 22.705 27.8246 22.9203 27.5206 23.123C27.2166 23.313 26.8936 23.408 26.5516 23.408C26.2729 23.408 26.0323 23.3383 25.8296 23.199C25.6396 23.047 25.4813 22.8633 25.3546 22.648L24.6136 21.318ZM48.4559 18.62V38H44.3709V18.62H48.4559ZM49.1399 12.768C49.1399 13.1353 49.0639 13.4837 48.9119 13.813C48.7726 14.1423 48.5763 14.4337 48.3229 14.687C48.0696 14.9277 47.7719 15.124 47.4299 15.276C47.1006 15.4153 46.7459 15.485 46.3659 15.485C45.9986 15.485 45.6503 15.4153 45.3209 15.276C45.0043 15.124 44.7256 14.9277 44.4849 14.687C44.2443 14.4337 44.0479 14.1423 43.8959 13.813C43.7566 13.4837 43.6869 13.1353 43.6869 12.768C43.6869 12.388 43.7566 12.0333 43.8959 11.704C44.0479 11.3747 44.2443 11.0897 44.4849 10.849C44.7256 10.5957 45.0043 10.3993 45.3209 10.26C45.6503 10.108 45.9986 10.032 46.3659 10.032C46.7459 10.032 47.1006 10.108 47.4299 10.26C47.7719 10.3993 48.0696 10.5957 48.3229 10.849C48.5763 11.0897 48.7726 11.3747 48.9119 11.704C49.0639 12.0333 49.1399 12.388 49.1399 12.768ZM70.6506 18.62L62.8606 38H59.1746L51.3846 18.62H54.7476C55.0643 18.62 55.3239 18.7023 55.5266 18.867C55.7419 19.019 55.8813 19.2027 55.9446 19.418L60.2386 30.704C60.4159 31.236 60.5743 31.7617 60.7136 32.281C60.8529 32.8003 60.9733 33.326 61.0746 33.858C61.1759 33.326 61.2963 32.8067 61.4356 32.3C61.5876 31.7807 61.7523 31.2487 61.9296 30.704L66.2996 19.418C66.3756 19.19 66.5149 19 66.7176 18.848C66.9203 18.696 67.1673 18.62 67.4586 18.62H70.6506ZM83.3518 29.526C81.8951 29.5767 80.6665 29.697 79.6658 29.887C78.6651 30.0643 77.8545 30.2987 77.2338 30.59C76.6131 30.8687 76.1635 31.2043 75.8848 31.597C75.6188 31.9897 75.4858 32.4203 75.4858 32.889C75.4858 33.345 75.5555 33.7377 75.6948 34.067C75.8468 34.3837 76.0495 34.6497 76.3028 34.865C76.5688 35.0677 76.8728 35.2197 77.2148 35.321C77.5695 35.4097 77.9558 35.454 78.3738 35.454C79.4378 35.454 80.3498 35.2577 81.1098 34.865C81.8825 34.4597 82.6298 33.877 83.3518 33.117V29.526ZM72.5218 21.318C74.7131 19.2787 77.3225 18.259 80.3498 18.259C81.4645 18.259 82.4525 18.4427 83.3138 18.81C84.1878 19.1647 84.9161 19.6713 85.4988 20.33C86.0941 20.9887 86.5438 21.774 86.8478 22.686C87.1645 23.5853 87.3228 24.586 87.3228 25.688V38H85.4988C85.1061 38 84.8085 37.943 84.6058 37.829C84.4031 37.7023 84.2321 37.4553 84.0928 37.088L83.6938 35.511C83.1998 35.9543 82.7121 36.3533 82.2308 36.708C81.7495 37.05 81.2491 37.3413 80.7298 37.582C80.2231 37.8227 79.6721 38 79.0768 38.114C78.4941 38.2407 77.8481 38.304 77.1388 38.304C76.3535 38.304 75.6188 38.1963 74.9348 37.981C74.2635 37.7657 73.6808 37.4427 73.1868 37.012C72.6928 36.5687 72.3001 36.024 72.0088 35.378C71.7301 34.732 71.5908 33.972 71.5908 33.098C71.5908 32.3507 71.7871 31.6223 72.1798 30.913C72.5851 30.2037 73.2438 29.5703 74.1558 29.013C75.0805 28.443 76.2901 27.9743 77.7848 27.607C79.2921 27.2397 81.1478 27.0307 83.3518 26.98V25.688C83.3518 24.2947 83.0541 23.256 82.4588 22.572C81.8635 21.888 80.9895 21.546 79.8368 21.546C79.0515 21.546 78.3928 21.6473 77.8608 21.85C77.3288 22.04 76.8665 22.249 76.4738 22.477C76.0811 22.705 75.7328 22.9203 75.4288 23.123C75.1248 23.313 74.8018 23.408 74.4598 23.408C74.1811 23.408 73.9405 23.3383 73.7378 23.199C73.5478 23.047 73.3895 22.8633 73.2628 22.648L72.5218 21.318Z" fill="white"/>
<path d="M9.72 50.86L6.84 43.71C6.74 43.4767 6.64333 43.1967 6.55 42.87C6.51 43.03 6.46667 43.1833 6.42 43.33C6.37333 43.47 6.32333 43.6 6.27 43.72L3.39 50.86H9.72ZM12.85 56H12.06C11.9667 56 11.89 55.9767 11.83 55.93C11.77 55.8767 11.7233 55.81 11.69 55.73L10.03 51.62H3.08L1.42 55.73C1.39333 55.8033 1.34667 55.8667 1.28 55.92C1.21333 55.9733 1.13333 56 1.04 56H0.26L6.05 41.85H7.06L12.85 56ZM22.192 46.05V56H21.662C21.4954 56 21.3987 55.9133 21.372 55.74L21.282 54.26C20.822 54.8333 20.2887 55.2933 19.682 55.64C19.082 55.9867 18.412 56.16 17.672 56.16C17.1187 56.16 16.6354 56.0733 16.222 55.9C15.8087 55.7267 15.4654 55.4767 15.192 55.15C14.9187 54.8233 14.712 54.43 14.572 53.97C14.432 53.51 14.362 52.99 14.362 52.41V46.05H15.322V52.41C15.322 53.3433 15.5354 54.0767 15.962 54.61C16.3887 55.1367 17.0387 55.4 17.912 55.4C18.5587 55.4 19.162 55.2367 19.722 54.91C20.2887 54.5767 20.792 54.1167 21.232 53.53V46.05H22.192ZM28.1881 56.16C27.5148 56.16 26.9881 55.9733 26.6081 55.6C26.2348 55.2267 26.0481 54.65 26.0481 53.87V47.07H24.6181C24.5448 47.07 24.4848 47.05 24.4381 47.01C24.3915 46.97 24.3681 46.9133 24.3681 46.84V46.47L26.0681 46.35L26.3081 42.79C26.3215 42.73 26.3481 42.6767 26.3881 42.63C26.4281 42.5833 26.4848 42.56 26.5581 42.56H27.0081V46.36H30.1481V47.07H27.0081V53.82C27.0081 54.0933 27.0415 54.33 27.1081 54.53C27.1815 54.7233 27.2781 54.8833 27.3981 55.01C27.5248 55.1367 27.6715 55.23 27.8381 55.29C28.0048 55.35 28.1848 55.38 28.3781 55.38C28.6181 55.38 28.8248 55.3467 28.9981 55.28C29.1715 55.2067 29.3215 55.13 29.4481 55.05C29.5748 54.9633 29.6781 54.8867 29.7581 54.82C29.8381 54.7467 29.9015 54.71 29.9481 54.71C30.0015 54.71 30.0548 54.7433 30.1081 54.81L30.3681 55.23C30.1148 55.51 29.7915 55.7367 29.3981 55.91C29.0115 56.0767 28.6081 56.16 28.1881 56.16ZM36.2245 45.89C36.9379 45.89 37.5745 46.0133 38.1345 46.26C38.7012 46.5 39.1779 46.8433 39.5645 47.29C39.9512 47.7367 40.2445 48.2767 40.4445 48.91C40.6512 49.5367 40.7545 50.24 40.7545 51.02C40.7545 51.8 40.6512 52.5033 40.4445 53.13C40.2445 53.7567 39.9512 54.2933 39.5645 54.74C39.1779 55.1867 38.7012 55.53 38.1345 55.77C37.5745 56.01 36.9379 56.13 36.2245 56.13C35.5112 56.13 34.8712 56.01 34.3045 55.77C33.7445 55.53 33.2679 55.1867 32.8745 54.74C32.4879 54.2933 32.1912 53.7567 31.9845 53.13C31.7845 52.5033 31.6845 51.8 31.6845 51.02C31.6845 50.24 31.7845 49.5367 31.9845 48.91C32.1912 48.2767 32.4879 47.7367 32.8745 47.29C33.2679 46.8433 33.7445 46.5 34.3045 46.26C34.8712 46.0133 35.5112 45.89 36.2245 45.89ZM36.2245 55.38C36.8179 55.38 37.3345 55.28 37.7745 55.08C38.2212 54.8733 38.5912 54.58 38.8845 54.2C39.1845 53.82 39.4079 53.3633 39.5545 52.83C39.7012 52.29 39.7745 51.6867 39.7745 51.02C39.7745 50.36 39.7012 49.76 39.5545 49.22C39.4079 48.68 39.1845 48.22 38.8845 47.84C38.5912 47.4533 38.2212 47.1567 37.7745 46.95C37.3345 46.7433 36.8179 46.64 36.2245 46.64C35.6312 46.64 35.1112 46.7433 34.6645 46.95C34.2245 47.1567 33.8545 47.4533 33.5545 47.84C33.2612 48.22 33.0379 48.68 32.8845 49.22C32.7379 49.76 32.6645 50.36 32.6645 51.02C32.6645 51.6867 32.7379 52.29 32.8845 52.83C33.0379 53.3633 33.2612 53.82 33.5545 54.2C33.8545 54.58 34.2245 54.8733 34.6645 55.08C35.1112 55.28 35.6312 55.38 36.2245 55.38ZM52.0744 55.15L52.0544 56H43.5744V41.85H52.0544V42.7H44.6044V48.42H50.8044V49.25H44.6044V55.15H52.0744ZM55.6392 41.45V56H54.6792V41.45H55.6392ZM65.9833 50.02C65.9833 49.4867 65.9066 49.01 65.7533 48.59C65.6066 48.1633 65.3966 47.8033 65.1233 47.51C64.8499 47.2167 64.5233 46.9933 64.1433 46.84C63.7699 46.68 63.3566 46.6 62.9033 46.6C62.3899 46.6 61.9299 46.68 61.5233 46.84C61.1166 47 60.7633 47.23 60.4633 47.53C60.1699 47.83 59.9333 48.19 59.7533 48.61C59.5733 49.03 59.4533 49.5 59.3933 50.02H65.9833ZM59.3433 50.63V50.82C59.3433 51.5667 59.4299 52.2233 59.6033 52.79C59.7766 53.3567 60.0233 53.8333 60.3433 54.22C60.6633 54.6 61.0499 54.8867 61.5033 55.08C61.9566 55.2733 62.4633 55.37 63.0233 55.37C63.5233 55.37 63.9566 55.3167 64.3233 55.21C64.6899 55.0967 64.9966 54.9733 65.2433 54.84C65.4966 54.7 65.6966 54.5767 65.8433 54.47C65.9899 54.3567 66.0966 54.3 66.1633 54.3C66.2499 54.3 66.3166 54.3333 66.3633 54.4L66.6233 54.72C66.4633 54.92 66.2499 55.1067 65.9833 55.28C65.7233 55.4533 65.4299 55.6033 65.1033 55.73C64.7833 55.85 64.4366 55.9467 64.0633 56.02C63.6966 56.0933 63.3266 56.13 62.9533 56.13C62.2733 56.13 61.6533 56.0133 61.0933 55.78C60.5333 55.54 60.0533 55.1933 59.6533 54.74C59.2533 54.2867 58.9433 53.7333 58.7233 53.08C58.5099 52.42 58.4033 51.6667 58.4033 50.82C58.4033 50.1067 58.5033 49.45 58.7033 48.85C58.9099 48.2433 59.2033 47.7233 59.5833 47.29C59.9699 46.85 60.4399 46.5067 60.9933 46.26C61.5533 46.0133 62.1866 45.89 62.8933 45.89C63.4533 45.89 63.9733 45.9867 64.4533 46.18C64.9333 46.3733 65.3499 46.6567 65.7033 47.03C66.0566 47.3967 66.3333 47.85 66.5333 48.39C66.7399 48.93 66.8433 49.55 66.8433 50.25C66.8433 50.3967 66.8233 50.4967 66.7833 50.55C66.7433 50.6033 66.6766 50.63 66.5833 50.63H59.3433ZM65.1433 41.69L62.9733 44.22C62.9199 44.2867 62.8633 44.3333 62.8033 44.36C62.7499 44.38 62.6833 44.39 62.6033 44.39H62.0333L63.6033 42.01C63.6766 41.89 63.7533 41.8067 63.8333 41.76C63.9133 41.7133 64.0333 41.69 64.1933 41.69H65.1433ZM72.1139 56.16C71.4406 56.16 70.9139 55.9733 70.5339 55.6C70.1606 55.2267 69.9739 54.65 69.9739 53.87V47.07H68.5439C68.4706 47.07 68.4106 47.05 68.3639 47.01C68.3172 46.97 68.2939 46.9133 68.2939 46.84V46.47L69.9939 46.35L70.2339 42.79C70.2472 42.73 70.2739 42.6767 70.3139 42.63C70.3539 42.5833 70.4106 42.56 70.4839 42.56H70.9339V46.36H74.0739V47.07H70.9339V53.82C70.9339 54.0933 70.9672 54.33 71.0339 54.53C71.1072 54.7233 71.2039 54.8833 71.3239 55.01C71.4506 55.1367 71.5972 55.23 71.7639 55.29C71.9306 55.35 72.1106 55.38 72.3039 55.38C72.5439 55.38 72.7506 55.3467 72.9239 55.28C73.0972 55.2067 73.2472 55.13 73.3739 55.05C73.5006 54.9633 73.6039 54.8867 73.6839 54.82C73.7639 54.7467 73.8272 54.71 73.8739 54.71C73.9272 54.71 73.9806 54.7433 74.0339 54.81L74.2939 55.23C74.0406 55.51 73.7172 55.7367 73.3239 55.91C72.9372 56.0767 72.5339 56.16 72.1139 56.16ZM77.1594 48.45C77.3127 48.0433 77.486 47.6833 77.6794 47.37C77.8794 47.05 78.106 46.78 78.3594 46.56C78.6194 46.34 78.906 46.1733 79.2194 46.06C79.5394 45.94 79.8927 45.88 80.2794 45.88C80.486 45.88 80.6894 45.9 80.8894 45.94C81.0894 45.9733 81.266 46.0367 81.4194 46.13L81.3394 46.79C81.306 46.8967 81.2427 46.95 81.1494 46.95C81.0694 46.95 80.946 46.9267 80.7794 46.88C80.6194 46.8333 80.406 46.81 80.1394 46.81C79.7527 46.81 79.4094 46.87 79.1094 46.99C78.816 47.1033 78.5494 47.2767 78.3094 47.51C78.076 47.7433 77.8694 48.0333 77.6894 48.38C77.516 48.72 77.356 49.1133 77.2094 49.56V56H76.2494V46.05H76.7594C76.8727 46.05 76.9527 46.0733 76.9994 46.12C77.046 46.1667 77.076 46.2467 77.0894 46.36L77.1594 48.45ZM84.3797 46.05V56H83.4297V46.05H84.3797ZM84.7897 42.62C84.7897 42.74 84.763 42.8533 84.7097 42.96C84.663 43.06 84.5997 43.15 84.5197 43.23C84.4397 43.31 84.3464 43.3733 84.2397 43.42C84.133 43.4667 84.0197 43.49 83.8997 43.49C83.7797 43.49 83.6664 43.4667 83.5597 43.42C83.453 43.3733 83.3597 43.31 83.2797 43.23C83.1997 43.15 83.1364 43.06 83.0897 42.96C83.043 42.8533 83.0197 42.74 83.0197 42.62C83.0197 42.5 83.043 42.3867 83.0897 42.28C83.1364 42.1667 83.1997 42.07 83.2797 41.99C83.3597 41.91 83.453 41.8467 83.5597 41.8C83.6664 41.7533 83.7797 41.73 83.8997 41.73C84.0197 41.73 84.133 41.7533 84.2397 41.8C84.3464 41.8467 84.4397 41.91 84.5197 41.99C84.5997 42.07 84.663 42.1667 84.7097 42.28C84.763 42.3867 84.7897 42.5 84.7897 42.62ZM94.4628 47.38C94.4295 47.4133 94.3961 47.4433 94.3628 47.47C94.3361 47.49 94.2961 47.5 94.2428 47.5C94.1761 47.5 94.0861 47.4567 93.9728 47.37C93.8595 47.2767 93.7061 47.1767 93.5128 47.07C93.3195 46.9633 93.0761 46.8667 92.7828 46.78C92.4961 46.6867 92.1461 46.64 91.7328 46.64C91.1595 46.64 90.6495 46.7433 90.2028 46.95C89.7628 47.15 89.3895 47.44 89.0828 47.82C88.7761 48.2 88.5428 48.66 88.3828 49.2C88.2295 49.74 88.1528 50.3467 88.1528 51.02C88.1528 51.72 88.2328 52.34 88.3928 52.88C88.5595 53.42 88.7928 53.8767 89.0928 54.25C89.3928 54.6167 89.7561 54.8967 90.1828 55.09C90.6095 55.2833 91.0828 55.38 91.6028 55.38C92.0828 55.38 92.4828 55.3233 92.8028 55.21C93.1295 55.0967 93.3961 54.9733 93.6028 54.84C93.8161 54.7067 93.9828 54.5833 94.1028 54.47C94.2228 54.3567 94.3228 54.3 94.4028 54.3C94.4828 54.3 94.5495 54.3333 94.6028 54.4L94.8528 54.72C94.6995 54.92 94.5061 55.1067 94.2728 55.28C94.0395 55.4533 93.7761 55.6033 93.4828 55.73C93.1895 55.8567 92.8695 55.9533 92.5228 56.02C92.1828 56.0933 91.8261 56.13 91.4528 56.13C90.8195 56.13 90.2395 56.0167 89.7128 55.79C89.1928 55.5567 88.7428 55.2233 88.3628 54.79C87.9895 54.35 87.6961 53.8133 87.4828 53.18C87.2761 52.5467 87.1728 51.8267 87.1728 51.02C87.1728 50.26 87.2728 49.5667 87.4728 48.94C87.6728 48.3133 87.9661 47.7733 88.3528 47.32C88.7395 46.8667 89.2095 46.5167 89.7628 46.27C90.3228 46.0167 90.9628 45.89 91.6828 45.89C92.3295 45.89 92.9028 45.9933 93.4028 46.2C93.9028 46.4067 94.3395 46.6867 94.7128 47.04L94.4628 47.38ZM102.776 51.19C101.83 51.2233 101.013 51.3 100.326 51.42C99.6464 51.5333 99.0831 51.69 98.6364 51.89C98.1964 52.09 97.8697 52.33 97.6564 52.61C97.4431 52.8833 97.3364 53.1967 97.3364 53.55C97.3364 53.8833 97.3897 54.1733 97.4964 54.42C97.6097 54.66 97.7564 54.86 97.9364 55.02C98.1231 55.1733 98.3364 55.2867 98.5764 55.36C98.8164 55.4333 99.0664 55.47 99.3264 55.47C99.7131 55.47 100.066 55.43 100.386 55.35C100.713 55.2633 101.013 55.1467 101.286 55C101.566 54.8467 101.826 54.6667 102.066 54.46C102.306 54.2533 102.543 54.03 102.776 53.79V51.19ZM96.9264 47.46C97.4464 46.94 97.9931 46.5467 98.5664 46.28C99.1397 46.0133 99.7897 45.88 100.516 45.88C101.05 45.88 101.516 45.9667 101.916 46.14C102.316 46.3067 102.646 46.55 102.906 46.87C103.173 47.1833 103.373 47.5667 103.506 48.02C103.64 48.4667 103.706 48.9667 103.706 49.52V56H103.326C103.126 56 103.003 55.9067 102.956 55.72L102.816 54.44C102.543 54.7067 102.27 54.9467 101.996 55.16C101.73 55.3733 101.45 55.5533 101.156 55.7C100.863 55.8467 100.546 55.96 100.206 56.04C99.8664 56.12 99.4931 56.16 99.0864 56.16C98.7464 56.16 98.4164 56.11 98.0964 56.01C97.7764 55.91 97.4897 55.7567 97.2364 55.55C96.9897 55.3433 96.7897 55.08 96.6364 54.76C96.4897 54.4333 96.4164 54.0433 96.4164 53.59C96.4164 53.17 96.5364 52.78 96.7764 52.42C97.0164 52.06 97.3931 51.7467 97.9064 51.48C98.4197 51.2133 99.0764 51 99.8764 50.84C100.683 50.68 101.65 50.5867 102.776 50.56V49.52C102.776 48.6 102.576 47.8933 102.176 47.4C101.783 46.9 101.196 46.65 100.416 46.65C99.9364 46.65 99.5264 46.7167 99.1864 46.85C98.8531 46.9833 98.5697 47.13 98.3364 47.29C98.1031 47.45 97.9131 47.5967 97.7664 47.73C97.6197 47.8633 97.4964 47.93 97.3964 47.93C97.3231 47.93 97.2631 47.9133 97.2164 47.88C97.1697 47.8467 97.1297 47.8033 97.0964 47.75L96.9264 47.46ZM110.164 48.62C109.724 48.8 109.324 49.02 108.964 49.28C108.611 49.54 108.311 49.83 108.064 50.15C107.817 50.47 107.627 50.8133 107.494 51.18C107.361 51.5467 107.294 51.9267 107.294 52.32C107.294 52.8333 107.391 53.28 107.584 53.66C107.784 54.04 108.041 54.36 108.354 54.62C108.667 54.8733 109.014 55.0633 109.394 55.19C109.781 55.3167 110.161 55.38 110.534 55.38C111.007 55.38 111.451 55.3267 111.864 55.22C112.284 55.1133 112.674 54.9667 113.034 54.78C113.394 54.5867 113.727 54.36 114.034 54.1C114.341 53.8333 114.617 53.5467 114.864 53.24L110.274 48.73L110.164 48.62ZM118.904 56H118.014C117.894 56 117.794 55.9867 117.714 55.96C117.641 55.9333 117.554 55.8733 117.454 55.78L115.404 53.77C115.111 54.1167 114.784 54.4367 114.424 54.73C114.064 55.0167 113.674 55.2667 113.254 55.48C112.834 55.6933 112.384 55.86 111.904 55.98C111.424 56.1 110.921 56.16 110.394 56.16C109.894 56.16 109.401 56.0767 108.914 55.91C108.427 55.7433 107.991 55.5 107.604 55.18C107.224 54.8533 106.914 54.4567 106.674 53.99C106.441 53.5167 106.324 52.98 106.324 52.38C106.324 51.9 106.411 51.4433 106.584 51.01C106.757 50.57 106.994 50.17 107.294 49.81C107.594 49.4433 107.951 49.1167 108.364 48.83C108.777 48.5433 109.224 48.31 109.704 48.13C109.224 47.59 108.867 47.07 108.634 46.57C108.401 46.07 108.284 45.5333 108.284 44.96C108.284 44.4933 108.367 44.0633 108.534 43.67C108.707 43.27 108.951 42.9233 109.264 42.63C109.577 42.3367 109.951 42.1067 110.384 41.94C110.824 41.7733 111.314 41.69 111.854 41.69C112.301 41.69 112.724 41.7667 113.124 41.92C113.524 42.0733 113.871 42.28 114.164 42.54C114.464 42.8 114.701 43.1033 114.874 43.45C115.054 43.79 115.151 44.1467 115.164 44.52L114.624 44.63C114.557 44.6433 114.494 44.6333 114.434 44.6C114.381 44.56 114.337 44.4933 114.304 44.4C114.271 44.22 114.197 44.0167 114.084 43.79C113.977 43.5633 113.824 43.35 113.624 43.15C113.424 42.95 113.177 42.7833 112.884 42.65C112.591 42.51 112.247 42.44 111.854 42.44C111.454 42.44 111.091 42.5033 110.764 42.63C110.437 42.75 110.157 42.9233 109.924 43.15C109.691 43.37 109.507 43.6333 109.374 43.94C109.247 44.2467 109.184 44.5833 109.184 44.95C109.184 45.4967 109.324 46.02 109.604 46.52C109.884 47.02 110.317 47.5567 110.904 48.13L115.374 52.52C115.674 52.04 115.911 51.5433 116.084 51.03C116.257 50.51 116.371 50.0067 116.424 49.52C116.437 49.4333 116.464 49.3667 116.504 49.32C116.544 49.2667 116.604 49.24 116.684 49.24H117.234C117.221 49.8667 117.104 50.5133 116.884 51.18C116.664 51.84 116.347 52.4733 115.934 53.08L118.904 56ZM135.289 41.85V56H134.399V43.94C134.399 43.7667 134.409 43.5833 134.429 43.39L128.859 53.28C128.765 53.4533 128.632 53.54 128.459 53.54H128.299C128.125 53.54 127.992 53.4533 127.899 53.28L122.179 43.37C122.199 43.57 122.209 43.76 122.209 43.94V56H121.309V41.85H122.019C122.112 41.85 122.185 41.86 122.239 41.88C122.292 41.9 122.345 41.9533 122.399 42.04L128.109 51.88C128.209 52.0667 128.295 52.2667 128.369 52.48C128.409 52.3733 128.452 52.27 128.499 52.17C128.545 52.0633 128.595 51.9633 128.649 51.87L134.199 42.04C134.252 41.9533 134.305 41.9 134.359 41.88C134.419 41.86 134.495 41.85 134.589 41.85H135.289ZM145.69 50.02C145.69 49.4867 145.614 49.01 145.46 48.59C145.314 48.1633 145.104 47.8033 144.83 47.51C144.557 47.2167 144.23 46.9933 143.85 46.84C143.477 46.68 143.064 46.6 142.61 46.6C142.097 46.6 141.637 46.68 141.23 46.84C140.824 47 140.47 47.23 140.17 47.53C139.877 47.83 139.64 48.19 139.46 48.61C139.28 49.03 139.16 49.5 139.1 50.02H145.69ZM139.05 50.63V50.82C139.05 51.5667 139.137 52.2233 139.31 52.79C139.484 53.3567 139.73 53.8333 140.05 54.22C140.37 54.6 140.757 54.8867 141.21 55.08C141.664 55.2733 142.17 55.37 142.73 55.37C143.23 55.37 143.664 55.3167 144.03 55.21C144.397 55.0967 144.704 54.9733 144.95 54.84C145.204 54.7 145.404 54.5767 145.55 54.47C145.697 54.3567 145.804 54.3 145.87 54.3C145.957 54.3 146.024 54.3333 146.07 54.4L146.33 54.72C146.17 54.92 145.957 55.1067 145.69 55.28C145.43 55.4533 145.137 55.6033 144.81 55.73C144.49 55.85 144.144 55.9467 143.77 56.02C143.404 56.0933 143.034 56.13 142.66 56.13C141.98 56.13 141.36 56.0133 140.8 55.78C140.24 55.54 139.76 55.1933 139.36 54.74C138.96 54.2867 138.65 53.7333 138.43 53.08C138.217 52.42 138.11 51.6667 138.11 50.82C138.11 50.1067 138.21 49.45 138.41 48.85C138.617 48.2433 138.91 47.7233 139.29 47.29C139.677 46.85 140.147 46.5067 140.7 46.26C141.26 46.0133 141.894 45.89 142.6 45.89C143.16 45.89 143.68 45.9867 144.16 46.18C144.64 46.3733 145.057 46.6567 145.41 47.03C145.764 47.3967 146.04 47.85 146.24 48.39C146.447 48.93 146.55 49.55 146.55 50.25C146.55 50.3967 146.53 50.4967 146.49 50.55C146.45 50.6033 146.384 50.63 146.29 50.63H139.05ZM155.83 47.38C155.797 47.4133 155.763 47.4433 155.73 47.47C155.703 47.49 155.663 47.5 155.61 47.5C155.543 47.5 155.453 47.4567 155.34 47.37C155.227 47.2767 155.073 47.1767 154.88 47.07C154.687 46.9633 154.443 46.8667 154.15 46.78C153.863 46.6867 153.513 46.64 153.1 46.64C152.527 46.64 152.017 46.7433 151.57 46.95C151.13 47.15 150.757 47.44 150.45 47.82C150.143 48.2 149.91 48.66 149.75 49.2C149.597 49.74 149.52 50.3467 149.52 51.02C149.52 51.72 149.6 52.34 149.76 52.88C149.927 53.42 150.16 53.8767 150.46 54.25C150.76 54.6167 151.123 54.8967 151.55 55.09C151.977 55.2833 152.45 55.38 152.97 55.38C153.45 55.38 153.85 55.3233 154.17 55.21C154.497 55.0967 154.763 54.9733 154.97 54.84C155.183 54.7067 155.35 54.5833 155.47 54.47C155.59 54.3567 155.69 54.3 155.77 54.3C155.85 54.3 155.917 54.3333 155.97 54.4L156.22 54.72C156.067 54.92 155.873 55.1067 155.64 55.28C155.407 55.4533 155.143 55.6033 154.85 55.73C154.557 55.8567 154.237 55.9533 153.89 56.02C153.55 56.0933 153.193 56.13 152.82 56.13C152.187 56.13 151.607 56.0167 151.08 55.79C150.56 55.5567 150.11 55.2233 149.73 54.79C149.357 54.35 149.063 53.8133 148.85 53.18C148.643 52.5467 148.54 51.8267 148.54 51.02C148.54 50.26 148.64 49.5667 148.84 48.94C149.04 48.3133 149.333 47.7733 149.72 47.32C150.107 46.8667 150.577 46.5167 151.13 46.27C151.69 46.0167 152.33 45.89 153.05 45.89C153.697 45.89 154.27 45.9933 154.77 46.2C155.27 46.4067 155.707 46.6867 156.08 47.04L155.83 47.38ZM164.144 51.19C163.197 51.2233 162.38 51.3 161.694 51.42C161.014 51.5333 160.45 51.69 160.004 51.89C159.564 52.09 159.237 52.33 159.024 52.61C158.81 52.8833 158.704 53.1967 158.704 53.55C158.704 53.8833 158.757 54.1733 158.864 54.42C158.977 54.66 159.124 54.86 159.304 55.02C159.49 55.1733 159.704 55.2867 159.944 55.36C160.184 55.4333 160.434 55.47 160.694 55.47C161.08 55.47 161.434 55.43 161.754 55.35C162.08 55.2633 162.38 55.1467 162.654 55C162.934 54.8467 163.194 54.6667 163.434 54.46C163.674 54.2533 163.91 54.03 164.144 53.79V51.19ZM158.294 47.46C158.814 46.94 159.36 46.5467 159.934 46.28C160.507 46.0133 161.157 45.88 161.884 45.88C162.417 45.88 162.884 45.9667 163.284 46.14C163.684 46.3067 164.014 46.55 164.274 46.87C164.54 47.1833 164.74 47.5667 164.874 48.02C165.007 48.4667 165.074 48.9667 165.074 49.52V56H164.694C164.494 56 164.37 55.9067 164.324 55.72L164.184 54.44C163.91 54.7067 163.637 54.9467 163.364 55.16C163.097 55.3733 162.817 55.5533 162.524 55.7C162.23 55.8467 161.914 55.96 161.574 56.04C161.234 56.12 160.86 56.16 160.454 56.16C160.114 56.16 159.784 56.11 159.464 56.01C159.144 55.91 158.857 55.7567 158.604 55.55C158.357 55.3433 158.157 55.08 158.004 54.76C157.857 54.4333 157.784 54.0433 157.784 53.59C157.784 53.17 157.904 52.78 158.144 52.42C158.384 52.06 158.76 51.7467 159.274 51.48C159.787 51.2133 160.444 51 161.244 50.84C162.05 50.68 163.017 50.5867 164.144 50.56V49.52C164.144 48.6 163.944 47.8933 163.544 47.4C163.15 46.9 162.564 46.65 161.784 46.65C161.304 46.65 160.894 46.7167 160.554 46.85C160.22 46.9833 159.937 47.13 159.704 47.29C159.47 47.45 159.28 47.5967 159.134 47.73C158.987 47.8633 158.864 47.93 158.764 47.93C158.69 47.93 158.63 47.9133 158.584 47.88C158.537 47.8467 158.497 47.8033 158.464 47.75L158.294 47.46ZM164.294 44.31H163.644C163.544 44.31 163.447 44.2633 163.354 44.17L161.814 42.51C161.794 42.49 161.774 42.47 161.754 42.45C161.74 42.43 161.724 42.4067 161.704 42.38C161.684 42.4067 161.664 42.43 161.644 42.45C161.63 42.47 161.614 42.49 161.594 42.51L160.054 44.17C160.014 44.21 159.967 44.2433 159.914 44.27C159.867 44.2967 159.817 44.31 159.764 44.31H159.094L161.264 41.85H162.114L164.294 44.31ZM169.171 47.79C169.631 47.2167 170.161 46.7567 170.761 46.41C171.368 46.0633 172.041 45.89 172.781 45.89C173.328 45.89 173.808 45.9767 174.221 46.15C174.641 46.3233 174.988 46.5733 175.261 46.9C175.534 47.2267 175.741 47.62 175.881 48.08C176.021 48.54 176.091 49.06 176.091 49.64V56H175.131V49.64C175.131 48.7067 174.918 47.9767 174.491 47.45C174.064 46.9167 173.414 46.65 172.541 46.65C171.894 46.65 171.288 46.8167 170.721 47.15C170.161 47.4767 169.661 47.9333 169.221 48.52V56H168.261V46.05H168.791C168.958 46.05 169.054 46.1333 169.081 46.3L169.171 47.79ZM180.317 46.05V56H179.367V46.05H180.317ZM180.727 42.62C180.727 42.74 180.701 42.8533 180.647 42.96C180.601 43.06 180.537 43.15 180.457 43.23C180.377 43.31 180.284 43.3733 180.177 43.42C180.071 43.4667 179.957 43.49 179.837 43.49C179.717 43.49 179.604 43.4667 179.497 43.42C179.391 43.3733 179.297 43.31 179.217 43.23C179.137 43.15 179.074 43.06 179.027 42.96C178.981 42.8533 178.957 42.74 178.957 42.62C178.957 42.5 178.981 42.3867 179.027 42.28C179.074 42.1667 179.137 42.07 179.217 41.99C179.297 41.91 179.391 41.8467 179.497 41.8C179.604 41.7533 179.717 41.73 179.837 41.73C179.957 41.73 180.071 41.7533 180.177 41.8C180.284 41.8467 180.377 41.91 180.457 41.99C180.537 42.07 180.601 42.1667 180.647 42.28C180.701 42.3867 180.727 42.5 180.727 42.62ZM190.4 47.38C190.367 47.4133 190.334 47.4433 190.3 47.47C190.274 47.49 190.234 47.5 190.18 47.5C190.114 47.5 190.024 47.4567 189.91 47.37C189.797 47.2767 189.644 47.1767 189.45 47.07C189.257 46.9633 189.014 46.8667 188.72 46.78C188.434 46.6867 188.084 46.64 187.67 46.64C187.097 46.64 186.587 46.7433 186.14 46.95C185.7 47.15 185.327 47.44 185.02 47.82C184.714 48.2 184.48 48.66 184.32 49.2C184.167 49.74 184.09 50.3467 184.09 51.02C184.09 51.72 184.17 52.34 184.33 52.88C184.497 53.42 184.73 53.8767 185.03 54.25C185.33 54.6167 185.694 54.8967 186.12 55.09C186.547 55.2833 187.02 55.38 187.54 55.38C188.02 55.38 188.42 55.3233 188.74 55.21C189.067 55.0967 189.334 54.9733 189.54 54.84C189.754 54.7067 189.92 54.5833 190.04 54.47C190.16 54.3567 190.26 54.3 190.34 54.3C190.42 54.3 190.487 54.3333 190.54 54.4L190.79 54.72C190.637 54.92 190.444 55.1067 190.21 55.28C189.977 55.4533 189.714 55.6033 189.42 55.73C189.127 55.8567 188.807 55.9533 188.46 56.02C188.12 56.0933 187.764 56.13 187.39 56.13C186.757 56.13 186.177 56.0167 185.65 55.79C185.13 55.5567 184.68 55.2233 184.3 54.79C183.927 54.35 183.634 53.8133 183.42 53.18C183.214 52.5467 183.11 51.8267 183.11 51.02C183.11 50.26 183.21 49.5667 183.41 48.94C183.61 48.3133 183.904 47.7733 184.29 47.32C184.677 46.8667 185.147 46.5167 185.7 46.27C186.26 46.0167 186.9 45.89 187.62 45.89C188.267 45.89 188.84 45.9933 189.34 46.2C189.84 46.4067 190.277 46.6867 190.65 47.04L190.4 47.38ZM198.714 51.19C197.767 51.2233 196.951 51.3 196.264 51.42C195.584 51.5333 195.021 51.69 194.574 51.89C194.134 52.09 193.807 52.33 193.594 52.61C193.381 52.8833 193.274 53.1967 193.274 53.55C193.274 53.8833 193.327 54.1733 193.434 54.42C193.547 54.66 193.694 54.86 193.874 55.02C194.061 55.1733 194.274 55.2867 194.514 55.36C194.754 55.4333 195.004 55.47 195.264 55.47C195.651 55.47 196.004 55.43 196.324 55.35C196.651 55.2633 196.951 55.1467 197.224 55C197.504 54.8467 197.764 54.6667 198.004 54.46C198.244 54.2533 198.481 54.03 198.714 53.79V51.19ZM192.864 47.46C193.384 46.94 193.931 46.5467 194.504 46.28C195.077 46.0133 195.727 45.88 196.454 45.88C196.987 45.88 197.454 45.9667 197.854 46.14C198.254 46.3067 198.584 46.55 198.844 46.87C199.111 47.1833 199.311 47.5667 199.444 48.02C199.577 48.4667 199.644 48.9667 199.644 49.52V56H199.264C199.064 56 198.941 55.9067 198.894 55.72L198.754 54.44C198.481 54.7067 198.207 54.9467 197.934 55.16C197.667 55.3733 197.387 55.5533 197.094 55.7C196.801 55.8467 196.484 55.96 196.144 56.04C195.804 56.12 195.431 56.16 195.024 56.16C194.684 56.16 194.354 56.11 194.034 56.01C193.714 55.91 193.427 55.7567 193.174 55.55C192.927 55.3433 192.727 55.08 192.574 54.76C192.427 54.4333 192.354 54.0433 192.354 53.59C192.354 53.17 192.474 52.78 192.714 52.42C192.954 52.06 193.331 51.7467 193.844 51.48C194.357 51.2133 195.014 51 195.814 50.84C196.621 50.68 197.587 50.5867 198.714 50.56V49.52C198.714 48.6 198.514 47.8933 198.114 47.4C197.721 46.9 197.134 46.65 196.354 46.65C195.874 46.65 195.464 46.7167 195.124 46.85C194.791 46.9833 194.507 47.13 194.274 47.29C194.041 47.45 193.851 47.5967 193.704 47.73C193.557 47.8633 193.434 47.93 193.334 47.93C193.261 47.93 193.201 47.9133 193.154 47.88C193.107 47.8467 193.067 47.8033 193.034 47.75L192.864 47.46Z" fill="white"/>
</svg>
